<?xml version="1.0" standalone="no"?>
<!DOCTYPE svg PUBLIC "-//W3C//DTD SVG 1.1//EN" "http://www.w3.org/Graphics/SVG/1.1/DTD/svg11.dtd">
<svg xmlns="http://www.w3.org/2000/svg" xmlns:xlink="http://www.w3.org/1999/xlink" width="375" zoomAndPan="magnify" viewBox="0 0 375 374.999991" height="375" preserveAspectRatio="xMidYMid meet" version="1.0"><defs><g/><clipPath id="e0d7665ccd"><path d="M 158 142 L 254.789062 142 L 254.789062 224.851562 L 158 224.851562 Z M 158 142 " clip-rule="nonzero"/></clipPath><clipPath id="df9d1305ba"><path d="M 205 175 L 254.789062 175 L 254.789062 178 L 205 178 Z M 205 175 " clip-rule="nonzero"/></clipPath><clipPath id="e22796de84"><path d="M 120.539062 85.351562 L 208 85.351562 L 208 178 L 120.539062 178 Z M 120.539062 85.351562 " clip-rule="nonzero"/></clipPath></defs><rect x="-37.5" width="450" fill="#ffffff" y="-37.499999" height="449.999989" fill-opacity="1"/><rect x="-37.5" width="450" fill="#ffffff" y="-37.499999" height="449.999989" fill-opacity="1"/><rect x="-37.5" width="450" fill="#ffffff" y="-37.499999" height="449.999989" fill-opacity="1"/><g fill="#000000" fill-opacity="1"><g transform="translate(123.337321, 263.494127)"><g><path d="M 15.015625 0 L 12.578125 -6.234375 L 4.71875 -6.234375 L 2.3125 0 L 0 0 L 7.75 -19.6875 L 9.671875 -19.6875 L 17.375 0 Z M 11.875 -8.28125 L 9.59375 -14.359375 C 9.289062 -15.128906 8.984375 -16.070312 8.671875 -17.1875 C 8.472656 -16.332031 8.191406 -15.390625 7.828125 -14.359375 L 5.53125 -8.28125 Z M 11.875 -8.28125 "/></g></g></g><g fill="#000000" fill-opacity="1"><g transform="translate(150.078368, 263.494127)"><g><path d="M 7.6875 -9.796875 L 12.921875 -19.609375 L 15.390625 -19.609375 L 8.84375 -7.609375 L 8.84375 0 L 6.53125 0 L 6.53125 -7.5 L 0 -19.609375 L 2.5 -19.609375 Z M 7.6875 -9.796875 "/></g></g></g><g fill="#000000" fill-opacity="1"><g transform="translate(174.821815, 263.494127)"><g><path d="M 18.34375 -10 C 18.34375 -6.757812 17.460938 -4.28125 15.703125 -2.5625 C 13.953125 -0.851562 11.425781 0 8.125 0 L 2.703125 0 L 2.703125 -19.609375 L 8.703125 -19.609375 C 11.753906 -19.609375 14.125 -18.765625 15.8125 -17.078125 C 17.5 -15.390625 18.34375 -13.03125 18.34375 -10 Z M 15.9375 -9.90625 C 15.9375 -12.46875 15.289062 -14.394531 14 -15.6875 C 12.71875 -16.988281 10.8125 -17.640625 8.28125 -17.640625 L 4.96875 -17.640625 L 4.96875 -1.96875 L 7.75 -1.96875 C 10.46875 -1.96875 12.507812 -2.632812 13.875 -3.96875 C 15.25 -5.3125 15.9375 -7.289062 15.9375 -9.90625 Z M 15.9375 -9.90625 "/></g></g></g><g fill="#000000" fill-opacity="1"><g transform="translate(204.203998, 263.494127)"><g><path d="M 15.015625 0 L 12.578125 -6.234375 L 4.71875 -6.234375 L 2.3125 0 L 0 0 L 7.75 -19.6875 L 9.671875 -19.6875 L 17.375 0 Z M 11.875 -8.28125 L 9.59375 -14.359375 C 9.289062 -15.128906 8.984375 -16.070312 8.671875 -17.1875 C 8.472656 -16.332031 8.191406 -15.390625 7.828125 -14.359375 L 5.53125 -8.28125 Z M 11.875 -8.28125 "/></g></g></g><g fill="#000000" fill-opacity="1"><g transform="translate(230.945045, 263.494127)"><g><path d="M 18.015625 0 L 15.40625 0 L 4.6875 -16.453125 L 4.59375 -16.453125 C 4.726562 -14.523438 4.796875 -12.753906 4.796875 -11.140625 L 4.796875 0 L 2.703125 0 L 2.703125 -19.609375 L 5.265625 -19.609375 L 15.953125 -3.21875 L 16.0625 -3.21875 C 16.050781 -3.457031 16.015625 -4.234375 15.953125 -5.546875 C 15.890625 -6.859375 15.863281 -7.796875 15.875 -8.359375 L 15.875 -19.609375 L 18.015625 -19.609375 Z M 18.015625 0 "/></g></g></g><g fill="#000000" fill-opacity="1"><g transform="translate(135.347976, 286.072599)"><g><path d="M 6.890625 -6.25 L 10.953125 -6.25 L 10.953125 -0.453125 C 10.316406 -0.242188 9.671875 -0.09375 9.015625 0 C 8.367188 0.101562 7.613281 0.15625 6.75 0.15625 C 4.945312 0.15625 3.539062 -0.378906 2.53125 -1.453125 C 1.519531 -2.523438 1.015625 -4.03125 1.015625 -5.96875 C 1.015625 -7.207031 1.265625 -8.289062 1.765625 -9.21875 C 2.265625 -10.15625 2.984375 -10.867188 3.921875 -11.359375 C 4.859375 -11.859375 5.953125 -12.109375 7.203125 -12.109375 C 8.484375 -12.109375 9.671875 -11.875 10.765625 -11.40625 L 10.234375 -10.1875 C 9.148438 -10.632812 8.113281 -10.859375 7.125 -10.859375 C 5.664062 -10.859375 4.523438 -10.425781 3.703125 -9.5625 C 2.890625 -8.695312 2.484375 -7.5 2.484375 -5.96875 C 2.484375 -4.351562 2.875 -3.128906 3.65625 -2.296875 C 4.445312 -1.460938 5.609375 -1.046875 7.140625 -1.046875 C 7.960938 -1.046875 8.769531 -1.144531 9.5625 -1.34375 L 9.5625 -5.015625 L 6.890625 -5.015625 Z M 6.890625 -6.25 "/></g></g></g><g fill="#000000" fill-opacity="1"><g transform="translate(159.151202, 286.072599)"><g><path d="M 3.03125 -4.96875 L 3.03125 0 L 1.640625 0 L 1.640625 -11.9375 L 4.921875 -11.9375 C 6.378906 -11.9375 7.457031 -11.65625 8.15625 -11.09375 C 8.851562 -10.53125 9.203125 -9.6875 9.203125 -8.5625 C 9.203125 -6.988281 8.40625 -5.921875 6.8125 -5.359375 L 10.046875 0 L 8.40625 0 L 5.515625 -4.96875 Z M 3.03125 -6.15625 L 4.9375 -6.15625 C 5.914062 -6.15625 6.628906 -6.347656 7.078125 -6.734375 C 7.535156 -7.128906 7.765625 -7.710938 7.765625 -8.484375 C 7.765625 -9.273438 7.53125 -9.84375 7.0625 -10.1875 C 6.601562 -10.539062 5.859375 -10.71875 4.828125 -10.71875 L 3.03125 -10.71875 Z M 3.03125 -6.15625 "/></g></g></g><g fill="#000000" fill-opacity="1"><g transform="translate(181.11851, 286.072599)"><g><path d="M 12 -5.984375 C 12 -4.078125 11.515625 -2.578125 10.546875 -1.484375 C 9.585938 -0.390625 8.242188 0.15625 6.515625 0.15625 C 4.765625 0.15625 3.410156 -0.378906 2.453125 -1.453125 C 1.492188 -2.523438 1.015625 -4.039062 1.015625 -6 C 1.015625 -7.945312 1.492188 -9.453125 2.453125 -10.515625 C 3.410156 -11.585938 4.769531 -12.125 6.53125 -12.125 C 8.25 -12.125 9.585938 -11.578125 10.546875 -10.484375 C 11.515625 -9.398438 12 -7.898438 12 -5.984375 Z M 2.484375 -5.984375 C 2.484375 -4.367188 2.828125 -3.140625 3.515625 -2.296875 C 4.210938 -1.460938 5.210938 -1.046875 6.515625 -1.046875 C 7.835938 -1.046875 8.835938 -1.460938 9.515625 -2.296875 C 10.191406 -3.128906 10.53125 -4.359375 10.53125 -5.984375 C 10.53125 -7.585938 10.191406 -8.800781 9.515625 -9.625 C 8.847656 -10.457031 7.851562 -10.875 6.53125 -10.875 C 5.21875 -10.875 4.210938 -10.457031 3.515625 -9.625 C 2.828125 -8.789062 2.484375 -7.578125 2.484375 -5.984375 Z M 2.484375 -5.984375 "/></g></g></g><g fill="#000000" fill-opacity="1"><g transform="translate(205.770334, 286.072599)"><g><path d="M 10.65625 -11.9375 L 10.65625 -4.21875 C 10.65625 -2.851562 10.242188 -1.78125 9.421875 -1 C 8.597656 -0.226562 7.46875 0.15625 6.03125 0.15625 C 4.59375 0.15625 3.476562 -0.234375 2.6875 -1.015625 C 1.90625 -1.796875 1.515625 -2.875 1.515625 -4.25 L 1.515625 -11.9375 L 2.90625 -11.9375 L 2.90625 -4.140625 C 2.90625 -3.148438 3.175781 -2.382812 3.71875 -1.84375 C 4.257812 -1.3125 5.0625 -1.046875 6.125 -1.046875 C 7.132812 -1.046875 7.910156 -1.3125 8.453125 -1.84375 C 8.992188 -2.382812 9.265625 -3.15625 9.265625 -4.15625 L 9.265625 -11.9375 Z M 10.65625 -11.9375 "/></g></g></g><g fill="#000000" fill-opacity="1"><g transform="translate(229.573563, 286.072599)"><g><path d="M 9.203125 -8.453125 C 9.203125 -7.242188 8.789062 -6.3125 7.96875 -5.65625 C 7.144531 -5.007812 5.96875 -4.6875 4.4375 -4.6875 L 3.03125 -4.6875 L 3.03125 0 L 1.640625 0 L 1.640625 -11.9375 L 4.734375 -11.9375 C 7.710938 -11.9375 9.203125 -10.773438 9.203125 -8.453125 Z M 3.03125 -5.890625 L 4.28125 -5.890625 C 5.507812 -5.890625 6.394531 -6.085938 6.9375 -6.484375 C 7.488281 -6.878906 7.765625 -7.515625 7.765625 -8.390625 C 7.765625 -9.179688 7.503906 -9.769531 6.984375 -10.15625 C 6.472656 -10.539062 5.671875 -10.734375 4.578125 -10.734375 L 3.03125 -10.734375 Z M 3.03125 -5.890625 "/></g></g></g><g clip-path="url(#e0d7665ccd)"><path fill="#2b2b2b" d="M 206.648438 224.851562 C 180.238281 224.851562 158.757812 203.191406 158.757812 176.542969 C 158.757812 163.914062 163.546875 151.996094 172.226562 142.976562 C 172.757812 142.417969 173.636719 142.40625 174.195312 142.933594 C 174.753906 143.464844 174.769531 144.355469 174.238281 144.898438 C 166.058594 153.402344 161.550781 164.640625 161.550781 176.527344 C 161.550781 201.628906 181.773438 222.039062 206.632812 222.039062 C 231.492188 222.039062 251.730469 201.617188 251.730469 176.527344 C 251.730469 175.761719 252.359375 175.136719 253.125 175.136719 C 253.894531 175.136719 254.519531 175.761719 254.519531 176.527344 C 254.535156 203.191406 233.054688 224.851562 206.648438 224.851562 Z M 206.648438 224.851562 " fill-opacity="1" fill-rule="nonzero"/></g><path fill="#2b2b2b" d="M 239.515625 144.785156 C 239.152344 144.785156 238.792969 144.648438 238.527344 144.367188 C 230.027344 135.777344 218.707031 131.042969 206.648438 131.042969 C 199.863281 131.042969 193.34375 132.535156 187.261719 135.457031 C 186.5625 135.792969 185.726562 135.5 185.390625 134.804688 C 185.054688 134.109375 185.347656 133.273438 186.046875 132.9375 C 192.507812 129.820312 199.445312 128.246094 206.648438 128.246094 C 219.460938 128.246094 231.476562 133.273438 240.507812 142.40625 C 241.050781 142.949219 241.039062 143.839844 240.492188 144.367188 C 240.230469 144.660156 239.867188 144.785156 239.515625 144.785156 Z M 239.515625 144.785156 " fill-opacity="1" fill-rule="nonzero"/><g clip-path="url(#df9d1305ba)"><path fill="#2b2b2b" d="M 253.125 177.949219 L 206.648438 177.949219 C 205.878906 177.949219 205.25 177.320312 205.25 176.554688 C 205.25 175.789062 205.878906 175.164062 206.648438 175.164062 L 253.125 175.164062 C 253.894531 175.164062 254.519531 175.789062 254.519531 176.554688 C 254.519531 177.320312 253.894531 177.949219 253.125 177.949219 Z M 253.125 177.949219 " fill-opacity="1" fill-rule="nonzero"/></g><g clip-path="url(#e22796de84)"><path fill="#2b2b2b" d="M 206.523438 177.824219 C 205.992188 177.824219 205.503906 177.53125 205.265625 177.015625 L 164.425781 90.238281 L 123.601562 177.015625 C 123.265625 177.710938 122.441406 178.019531 121.742188 177.683594 C 121.046875 177.363281 120.738281 176.527344 121.074219 175.832031 L 163.167969 86.355469 C 163.628906 85.378906 165.234375 85.378906 165.695312 86.355469 L 207.792969 175.832031 C 208.125 176.527344 207.820312 177.363281 207.121094 177.683594 C 206.925781 177.78125 206.71875 177.824219 206.523438 177.824219 Z M 206.523438 177.824219 " fill-opacity="1" fill-rule="nonzero"/></g></svg>